<svg xmlns="http://www.w3.org/2000/svg" xmlns:xlink="http://www.w3.org/1999/xlink" width="118" height="58" viewBox="0 0 118 58">
  <defs>
    <filter id="Rectangle_11" x="0" y="0" width="118" height="58" filterUnits="userSpaceOnUse">
      <feOffset dx="-1" dy="2" input="SourceAlpha"/>
      <feGaussianBlur stdDeviation="3" result="blur"/>
      <feFlood flood-color="#143d6d" flood-opacity="0.502"/>
      <feComposite operator="in" in2="blur"/>
      <feComposite in="SourceGraphic"/>
    </filter>
  </defs>
  <g id="Group_18" data-name="Group 18" transform="translate(-1025 -569)">
    <g transform="matrix(1, 0, 0, 1, 1025, 569)" filter="url(#Rectangle_11)">
      <rect id="Rectangle_11-2" data-name="Rectangle 11" width="100" height="40" rx="10" transform="translate(10 7)" fill="#143d6d"/>
    </g>
    <text id="BACK" transform="translate(1077 601)" fill="#ffb019" font-size="16" font-family="SegoeUI-Bold, Segoe UI" font-weight="700"><tspan x="0" y="0">BACK</tspan></text>
    <path id="arrow" d="M144.719,137.987a.8.8,0,0,0-.234-.586l-4.714-4.714-1.185-1.185a.85.85,0,0,0-1.172,0l-1.185,1.185-4.714,4.714a.85.85,0,0,0,0,1.172l1.185,1.185a.85.85,0,0,0,1.172,0l2.461-2.461v6.536a.845.845,0,0,0,.833.833h1.667a.845.845,0,0,0,.833-.833V137.3l2.461,2.461a.818.818,0,0,0,1.172,0l1.185-1.185A.8.8,0,0,0,144.719,137.987ZM148,138a9.782,9.782,0,0,1-1.341,5.02,9.955,9.955,0,0,1-3.639,3.639,10.064,10.064,0,0,1-10.039,0,9.955,9.955,0,0,1-3.639-3.639,10.064,10.064,0,0,1,0-10.039,9.955,9.955,0,0,1,3.639-3.639,10.064,10.064,0,0,1,10.039,0,9.955,9.955,0,0,1,3.639,3.639A9.782,9.782,0,0,1,148,138Z" transform="translate(922 733) rotate(-90)" fill="#ffb019"/>
  </g>
</svg>
